<svg width="1036" height="413" viewBox="0 0 1036 413" fill="none" xmlns="http://www.w3.org/2000/svg">
<rect y="61" width="1000" height="352" rx="176" fill="#5267DF"/>
<rect x="500" width="536" height="346" rx="8" fill="#E8EAF6"/>
<mask id="mask0_7132_5" style="mask-type:alpha" maskUnits="userSpaceOnUse" x="500" y="0" width="536" height="346">
<rect x="500" width="536" height="346" rx="8" fill="white"/>
</mask>
<g mask="url(#mask0_7132_5)">
<rect x="496.47" y="0.197021" width="547" height="59" fill="#242A45"/>
<circle opacity="0.244768" cx="538.47" cy="30.197" r="16" fill="white"/>
<circle opacity="0.104399" cx="999.47" cy="30.197" r="16" fill="white"/>
<rect opacity="0.75" x="569.47" y="20.197" width="120" height="6" rx="3" fill="white"/>
<rect opacity="0.25" x="569.47" y="34.197" width="64" height="6" rx="3" fill="white"/>
<rect x="557" y="93" width="261" height="316" rx="8" fill="white"/>
<rect x="852" y="93" width="128" height="316" rx="8" fill="white"/>
<rect opacity="0.5" x="635.47" y="131.197" width="120" height="6" rx="3" fill="#242A45"/>
</g>
<circle cx="604.47" cy="141.197" r="16" fill="#F98E5D"/>
<rect opacity="0.25" x="872.47" y="115.197" width="88" height="6" rx="3" fill="#242A45"/>
<rect opacity="0.25" x="872.47" y="135.197" width="88" height="6" rx="3" fill="#242A45"/>
<rect opacity="0.25" x="872.47" y="155.197" width="88" height="6" rx="3" fill="#242A45"/>
<rect opacity="0.25" x="872.47" y="175.197" width="88" height="6" rx="3" fill="#242A45"/>
<rect opacity="0.25" x="872.47" y="209.197" width="88" height="6" rx="3" fill="#242A45"/>
<rect opacity="0.25" x="872.47" y="229.197" width="88" height="6" rx="3" fill="#242A45"/>
<rect opacity="0.25" x="872.47" y="249.197" width="88" height="6" rx="3" fill="#242A45"/>
<rect opacity="0.25" x="635.47" y="145.197" width="64" height="6" rx="3" fill="#242A45"/>
<circle cx="604.47" cy="197.197" r="16" fill="#6AC6D6"/>
<rect opacity="0.5" x="635.47" y="187.197" width="120" height="6" rx="3" fill="#242A45"/>
<rect opacity="0.25" x="635.47" y="201.197" width="64" height="6" rx="3" fill="#242A45"/>
<circle cx="604.47" cy="253.197" r="16" fill="#A47ED4"/>
<rect opacity="0.5" x="635.47" y="243.197" width="120" height="6" rx="3" fill="#242A45"/>
<rect opacity="0.25" x="635.47" y="257.197" width="64" height="6" rx="3" fill="#242A45"/>
<circle cx="604.47" cy="309.197" r="16" fill="#EC7878"/>
<rect opacity="0.5" x="635.47" y="299.197" width="120" height="6" rx="3" fill="#242A45"/>
<rect opacity="0.25" x="635.47" y="313.197" width="64" height="6" rx="3" fill="#242A45"/>
</svg>
