<svg width="214" height="4" viewBox="0 0 214 4" fill="none" xmlns="http://www.w3.org/2000/svg">
<path fill-rule="evenodd" clip-rule="evenodd" d="M-66 2C-66 3.10457 -66.8954 4 -68 4C-69.1046 4 -70 3.10457 -70 2C-70 0.895431 -69.1046 0 -68 0C-66.8954 0 -66 0.895431 -66 2ZM214 2C214 3.10457 213.105 4 212 4C210.895 4 210 3.10457 210 2C210 0.895431 210.895 0 212 0C213.105 0 214 0.895431 214 2ZM195 4C196.105 4 197 3.10457 197 2C197 0.895431 196.105 0 195 0C193.895 0 193 0.895431 193 2C193 3.10457 193.895 4 195 4ZM162 2C162 3.10457 161.105 4 160 4C158.895 4 158 3.10457 158 2C158 0.895431 158.895 0 160 0C161.105 0 162 0.895431 162 2ZM125 4C126.105 4 127 3.10457 127 2C127 0.895431 126.105 0 125 0C123.895 0 123 0.895431 123 2C123 3.10457 123.895 4 125 4ZM92 2C92 3.10457 91.1046 4 90 4C88.8954 4 88 3.10457 88 2C88 0.895431 88.8954 0 90 0C91.1046 0 92 0.895431 92 2ZM72 4C73.1046 4 74 3.10457 74 2C74 0.895431 73.1046 0 72 0C70.8954 0 70 0.895431 70 2C70 3.10457 70.8954 4 72 4ZM57 2C57 3.10457 56.1046 4 55 4C53.8954 4 53 3.10457 53 2C53 0.895431 53.8954 0 55 0C56.1046 0 57 0.895431 57 2ZM177 4C178.105 4 179 3.10457 179 2C179 0.895431 178.105 0 177 0C175.895 0 175 0.895431 175 2C175 3.10457 175.895 4 177 4ZM144 2C144 3.10457 143.105 4 142 4C140.895 4 140 3.10457 140 2C140 0.895431 140.895 0 142 0C143.105 0 144 0.895431 144 2ZM107 4C108.105 4 109 3.10457 109 2C109 0.895431 108.105 0 107 0C105.895 0 105 0.895431 105 2C105 3.10457 105.895 4 107 4ZM39 2C39 3.10457 38.1046 4 37 4C35.8954 4 35 3.10457 35 2C35 0.895431 35.8954 0 37 0C38.1046 0 39 0.895431 39 2ZM20 4C21.1046 4 22 3.10457 22 2C22 0.895431 21.1046 0 20 0C18.8954 0 18 0.895431 18 2C18 3.10457 18.8954 4 20 4ZM4 2C4 3.10457 3.10457 4 2 4C0.895432 4 0 3.10457 0 2C0 0.895431 0.895432 0 2 0C3.10457 0 4 0.895431 4 2ZM-15 4C-13.8954 4 -13 3.10457 -13 2C-13 0.895431 -13.8954 0 -15 0C-16.1046 0 -17 0.895431 -17 2C-17 3.10457 -16.1046 4 -15 4ZM-31 2C-31 3.10457 -31.8954 4 -33 4C-34.1046 4 -35 3.10457 -35 2C-35 0.895431 -34.1046 0 -33 0C-31.8954 0 -31 0.895431 -31 2ZM-50 4C-48.8954 4 -48 3.10457 -48 2C-48 0.895431 -48.8954 0 -50 0C-51.1046 0 -52 0.895431 -52 2C-52 3.10457 -51.1046 4 -50 4Z" fill="#495DCF" fill-opacity="0.20012"/>
</svg>
